<?xml version="1.0" encoding="UTF-8"?>
<svg xmlns="http://www.w3.org/2000/svg" viewBox="0 0 1500 1500" fill="#57286d">
    <path d="M1166.22 903.48c16.74 110.64-48.53 190.83-144.77 242.39-103.73 55.57-220.68 83.28-339.1 77.71-102.84-4.83-207.95-47.47-220.39-162.64-61.66 1.72-119.25-36.25-128.76-98.25-8.79-57.33 28.4-107.04 79.28-128.47l-10.26-47.93c-45.05 3.69-79.04-23.19-99.95-52.56-30.03-42.17-3.91-81.59-3.21-120.84.66-36.76-28.8-75.25.87-117.11 20.93-29.53 54.6-58.66 101.42-53.82-20.07-40.17-10.53-81.73 19.34-110.03 29.06-27.53 74.11-25.63 109.32-8.21 22.84-47.13 65.2-85.15 112.74-93.6 61.85-10.99 111.45 15.41 151.39 59.31 41.03-28.47 92.07-45.12 144.95-27.56 45.27 15.03 74.04 60.26 93.75 104.2 37.28-1.01 93.39-2.58 111.84 48.77 14.34 39.88-3.63 84.32-45.18 105.46 48.18 117.45-28 58.74 7.26 155.23 61.04-4.68 117.96 29.92 132.49 88.57 15.33 61.89-27.92 108.62-73.04 139.37Zm-61.34 3.88-16.45-47.5c13-5.1 25.39-4.08 40.22-7.39 34.12-7.61 63.68-41.54 53.73-78.12-9.31-34.21-49.66-47.74-81.2-39.66-13.69 3.51-23.39 9.95-36.31 10.96l-25.36-103.16c-39.39 5.64-78.95-11.86-114.06-25.12-18.28 30.99-45.97 60.98-76.53 69.63-42.58 12.05-79.33 4.14-116.14-18.39-52.39 91.41-157.03 125.57-252.22 87.7-7.27-2.89-23.65 10.53-22.1 17.52l23.3 104.85c-16.55 3.79-31.59 2.52-47.26 8.54-27.65 10.63-51.97 39.43-44.13 70.64 9.43 37.53 52.68 53.34 87.22 42.73 14.4-4.42 25.07-10.61 40.08-12.17-2.64 63.85-1.73 123.68 62.59 153.57 179.59 83.44 587.86-52.01 524.61-234.63Z" />
    <path d="M632.8 982.04c-22.3-13.4-28.01-36.73-31.29-58.69-14.14 9.16-20.17 22.58-28.77 35.69-11.72-3.17-21.92-6.06-32.17-15.27 26.16-57.45 93.52-97.1 157.26-78.41 41.58 12.2 50.87 71.35 25.01 101.75-22.49 26.43-60.67 32.58-90.04 14.93m31.52-26.92c17.46 1.06 31.87-6.67 35.13-20.13 2.89-11.94.7-29.84-13.33-35.57-11.1-4.54-27.71-5.09-38.18 1.51-10.75 6.78-9.88 22.73-7.12 33.76 2.13 8.53 8.77 19.54 23.49 20.43ZM926.38 908.5c-23.95-12.01-31.77-35.99-35.03-60.54-14.46 7.96-19.64 22.67-29.57 35.36-11.44-3.7-22.5-6.38-31.55-15.58 27.2-58.14 95.03-97.38 158.53-77.55 41.24 12.88 49.19 72.43 23.17 102-21.47 24.39-56.75 30.75-85.55 16.31m49.31-84.72c-11.26-4.43-31.16-5.58-38.95 1.92-14.58 14.05-9.21 43.72 8.59 51.47 16.01 6.97 35.86-.13 42.29-13.86 5.31-11.36 4.11-33.21-11.93-39.53M741.3 822.7l-205.02 46.07c-5.98-17.16-7.98-33.19-10.85-52.31zM1024.5 751.67l-198.15 49.94 181.89-100.73c9.22 15.49 10.08 28.49 16.26 50.79M904.28 1032.37c-103.37-5.93-50.35-16.38-136.21 31.59-8.48-4.3-12.78-12.35-16.59-24.58 94.08-54.17 40.64-44.89 154.64-36.56 1.3 11.87.33 19.88-1.83 29.55Z" />
</svg>
